HIERARCHY
ROOT Hips
{
	OFFSET 61.978802 -7.500375 92.434303
	CHANNELS 6 Xposition Yposition Zposition Xrotation Yrotation Zrotation
	JOINT spine
	{
		OFFSET 0.000000 -0.429886 7.475601
		CHANNELS 3 Xrotation Yrotation Zrotation
		JOINT spine1
		{
			OFFSET 0.000000 -0.000002 9.923012
			CHANNELS 3 Xrotation Yrotation Zrotation
			JOINT spine2
			{
				OFFSET 0.000000 -0.000001 9.508041
				CHANNELS 3 Xrotation Yrotation Zrotation
				JOINT Neck
				{
					OFFSET 0.000000 -1.163844 24.411102
					CHANNELS 3 Xrotation Yrotation Zrotation
					JOINT Head
					{
						OFFSET 0.000000 -0.000001 7.375229
						CHANNELS 3 Xrotation Yrotation Zrotation
						End Site
						{
							OFFSET 0.000000 5.887407 17.852203
						}
					}
				}
				JOINT RightShoulder
				{
					OFFSET -4.003559 0.557467 10.267899
					CHANNELS 3 Xrotation Yrotation Zrotation
					JOINT RightArm
					{
						OFFSET 0.000000 -0.000002 13.467300
						CHANNELS 3 Xrotation Yrotation Zrotation
						JOINT RightArmRoll
						{
							OFFSET 0.000000 -0.000001 6.798584
							CHANNELS 3 Xrotation Yrotation Zrotation
							JOINT RightForeArm
							{
								OFFSET 0.000000 -0.000003 19.801804
								CHANNELS 3 Xrotation Yrotation Zrotation
								JOINT RightForeArmRoll
								{
									OFFSET 0.000000 -0.000001 7.629044
									CHANNELS 3 Xrotation Yrotation Zrotation
									JOINT RightHand
									{
										OFFSET 0.000000 -0.000002 15.309799
										CHANNELS 3 Xrotation Yrotation Zrotation
										End Site
										{
											OFFSET 0.000000 0.000000 0.100006
										}
									}
								}
							}
						}
					}
				}
				JOINT LeftShoulder
				{
					OFFSET 4.003559 0.557467 10.267899
					CHANNELS 3 Xrotation Yrotation Zrotation
					JOINT LeftArm
					{
						OFFSET 0.000000 -0.000002 13.467300
						CHANNELS 3 Xrotation Yrotation Zrotation
						JOINT LeftArmRoll
						{
							OFFSET 0.000000 -0.000001 6.798584
							CHANNELS 3 Xrotation Yrotation Zrotation
							JOINT LeftForeArm
							{
								OFFSET 0.000000 -0.000003 19.801804
								CHANNELS 3 Xrotation Yrotation Zrotation
								JOINT LeftForeArmRoll
								{
									OFFSET 0.000000 -0.000001 7.629059
									CHANNELS 3 Xrotation Yrotation Zrotation
									JOINT LeftHand
									{
										OFFSET 0.000000 -0.000002 15.309799
										CHANNELS 3 Xrotation Yrotation Zrotation
										End Site
										{
											OFFSET 0.000000 0.000000 0.100006
										}
									}
								}
							}
						}
					}
				}
			}
		}
	}
	JOINT RightUpLeg
	{
		OFFSET -6.626091 1.019270 -1.215050
		CHANNELS 3 Xrotation Yrotation Zrotation
		JOINT RightUpLegRoll
		{
			OFFSET 0.000000 -0.000003 17.951698
			CHANNELS 3 Xrotation Yrotation Zrotation
			JOINT RightLeg
			{
				OFFSET 0.000000 0.000003 -22.230400
				CHANNELS 3 Xrotation Yrotation Zrotation
				JOINT RightLegRoll
				{
					OFFSET 0.000000 -0.000003 22.303200
					CHANNELS 3 Xrotation Yrotation Zrotation
					JOINT RightFoot
					{
						OFFSET 0.000000 -0.000003 18.563599
						CHANNELS 3 Xrotation Yrotation Zrotation
						JOINT RightToeBase
						{
							OFFSET 0.000000 -0.000002 15.518303
							CHANNELS 3 Xrotation Yrotation Zrotation
							End Site
							{
								OFFSET 0.006577 0.866261 7.515381
							}
						}
					}
				}
			}
		}
	}
	JOINT LeftUpLeg
	{
		OFFSET 6.626087 1.019270 -1.215050
		CHANNELS 3 Xrotation Yrotation Zrotation
		JOINT LeftUpLegRoll
		{
			OFFSET 0.000000 -0.000003 17.951797
			CHANNELS 3 Xrotation Yrotation Zrotation
			JOINT LeftLeg
			{
				OFFSET 0.000000 -0.000004 22.230301
				CHANNELS 3 Xrotation Yrotation Zrotation
				JOINT LeftLegRoll
				{
					OFFSET 0.000000 -0.000004 22.509293
					CHANNELS 3 Xrotation Yrotation Zrotation
					JOINT LeftFoot
					{
						OFFSET 0.000000 -0.000003 18.357498
						CHANNELS 3 Xrotation Yrotation Zrotation
						JOINT LeftToeBase
						{
							OFFSET 0.000000 -0.000002 15.518295
							CHANNELS 3 Xrotation Yrotation Zrotation
							End Site
							{
								OFFSET -0.029480 0.866261 7.515396
							}
						}
					}
				}
			}
		}
	}
}
MOTION
Frames: 13
Frame Time: 0.041667
59.994705 -7.892595 92.703300 -6.884829 -0.360272 -1.564511 -0.351929 -0.147758 -0.057738 3.298824 -0.295809 -0.116923 4.943917 -0.297642 -0.113366 6.350829 12.606764 -1.303233 6.007399 -11.568057 -0.812822 -1.221743 -66.015158 -2.260482 4.828924 -108.270560 30.487328 -0.000001 0.000000 -0.000006 2.509124 -3.759991 -1.164663 -0.000000 0.000004 -3.005362 -5.000210 -7.999600 0.000066 -7.692669 77.421458 10.346064 -75.531032 106.356099 51.806264 0.000004 0.000001 0.000005 0.020483 2.019090 0.812765 0.000001 0.000003 3.011711 -5.000173 7.999862 -0.000026 -7.040768 -173.681602 3.696922 -179.999991 0.000006 -1.177997 151.400705 -2.336708 -1.658423 0.000004 0.000004 0.456182 69.433292 6.925320 2.027644 29.365224 -7.138901 3.464741 1.908715 -175.968226 4.078780 -0.000005 0.000011 -1.167541 -10.263279 4.506982 0.637690 -0.000007 0.000002 -0.128532 71.564318 -6.963132 -1.737663 25.456854 7.355621 0.000003 
59.964203 -7.857890 92.702904 -6.892528 -0.362516 -1.584091 -0.351839 -0.148462 -0.056883 3.298995 -0.297362 -0.117413 4.944089 -0.299695 -0.113832 6.394289 12.598573 -1.299922 5.993574 -11.546254 -0.808504 -1.219722 -66.041482 -2.261043 4.551479 -108.214669 30.217983 -0.000001 -0.000001 -0.000008 2.488157 -3.748853 -1.165255 -0.000000 0.000004 -3.005360 -5.000210 -7.999600 0.000067 -7.707659 77.397525 10.360550 -75.432186 106.375839 51.770034 0.000003 0.000001 0.000005 0.020679 2.064339 0.812772 -0.000000 0.000002 3.011708 -5.000173 7.999861 -0.000026 -7.033236 -173.666616 3.707155 -179.999991 0.000006 -1.177998 151.407686 -2.343020 -1.659495 0.000002 0.000004 0.456195 69.435512 6.925311 2.027603 29.360374 -7.138905 3.464267 1.911652 -175.959238 4.083035 -0.000005 0.000010 -1.167540 -10.271501 4.506697 0.638228 -0.000008 0.000002 -0.128532 71.565616 -6.964025 -1.736126 25.456854 7.355620 0.000002 
59.977806 -7.865545 92.704094 -6.900281 -0.364739 -1.603560 -0.351706 -0.149158 -0.055958 3.299255 -0.298909 -0.117911 4.944350 -0.301776 -0.114306 6.437304 12.590287 -1.296653 5.980314 -11.524138 -0.804278 -1.217577 -66.067108 -2.261383 4.272932 -108.161182 29.946374 -0.000001 -0.000000 -0.000009 2.467143 -3.738362 -1.165782 -0.000000 0.000004 -3.005361 -5.000209 -7.999600 0.000064 -7.722424 77.373004 10.374770 -75.333189 106.395974 51.733410 0.000004 0.000001 0.000005 0.020865 2.109290 0.812822 0.000000 0.000003 3.011712 -5.000174 7.999860 -0.000025 -7.025507 -173.652615 3.717596 -179.999991 0.000006 -1.177998 151.414530 -2.350192 -1.660031 0.000003 0.000004 0.456213 69.437943 6.925309 2.027652 29.355316 -7.138904 3.463787 1.914654 -175.950249 4.087358 -0.000005 0.000011 -1.167529 -10.279722 4.506345 0.638774 -0.000008 0.000002 -0.128532 71.566715 -6.964987 -1.734716 25.456854 7.355620 0.000003 
59.957302 -7.849417 92.699501 -6.908071 -0.366946 -1.622937 -0.351547 -0.149849 -0.054983 3.299576 -0.300451 -0.118416 4.944658 -0.303877 -0.114785 6.479997 12.581903 -1.293406 5.967446 -11.501817 -0.800101 -1.215335 -66.092216 -2.261549 3.993341 -108.109108 29.672807 -0.000001 0.000000 -0.000006 2.446080 -3.728339 -1.166253 -0.000000 0.000004 -3.005360 -5.000210 -7.999600 0.000070 -7.736968 77.347985 10.388713 -75.233899 106.416301 51.696363 0.000002 0.000000 0.000004 0.021046 2.154021 0.812910 -0.000002 0.000002 3.011711 -5.000174 7.999860 -0.000026 -7.017678 -173.637615 3.727970 -179.999991 0.000006 -1.177997 151.421496 -2.356504 -1.661099 0.000003 0.000004 0.456234 69.440580 6.925283 2.027582 29.350173 -7.138909 3.463315 1.917714 -175.941274 4.091713 -0.000005 0.000011 -1.167520 -10.288043 4.505951 0.639337 -0.000008 0.000003 -0.128532 71.567719 -6.965982 -1.733114 25.456858 7.355620 0.000002 
59.960403 -7.847042 92.702698 -6.915886 -0.369142 -1.642275 -0.351373 -0.150537 -0.053981 3.299926 -0.301990 -0.118924 4.945010 -0.305988 -0.115269 6.522513 12.573611 -1.290185 5.954784 -11.479288 -0.795972 -1.213039 -66.117044 -2.261634 3.712581 -108.057445 29.397674 -0.000001 -0.000000 -0.000007 2.424998 -3.718587 -1.166691 -0.000000 0.000004 -3.005358 -5.000210 -7.999600 0.000066 -7.751437 77.322857 10.402576 -75.134403 106.436921 51.658947 0.000003 -0.000000 0.000001 0.021224 2.198632 0.813018 -0.000000 0.000002 3.011711 -5.000172 7.999861 -0.000024 -7.009773 -173.623614 3.738498 -179.999991 0.000005 -1.177998 151.428340 -2.363679 -1.661631 0.000003 0.000004 0.456259 69.443230 6.925289 2.027617 29.345020 -7.138912 3.462854 1.920802 -175.932286 4.096102 -0.000006 0.000011 -1.167500 -10.296264 4.505530 0.639894 -0.000008 0.000002 -0.128532 71.568723 -6.966980 -1.731614 25.456854 7.355621 0.000003 
59.976704 -7.850688 92.697197 -6.923708 -0.371331 -1.661602 -0.351193 -0.151224 -0.052972 3.300277 -0.303530 -0.119433 4.945372 -0.308103 -0.115753 6.564987 12.565323 -1.286958 5.942192 -11.456857 -0.791832 -1.210726 -66.141769 -2.261679 3.430156 -108.007188 29.120693 -0.000001 0.000000 -0.000008 2.403908 -3.708893 -1.167117 -0.000000 0.000004 -3.005360 -5.000210 -7.999600 0.000067 -7.765777 77.297531 10.416294 -75.035058 106.457500 51.621702 0.000003 0.000000 0.000004 0.021401 2.243210 0.813132 -0.000001 0.000002 3.011709 -5.000173 7.999860 -0.000028 -7.001857 -173.608615 3.748920 -179.999991 0.000006 -1.177998 151.435307 -2.369994 -1.662698 0.000002 0.000004 0.456285 69.445880 6.925296 2.027653 29.339757 -7.138906 3.462378 1.923890 -175.923297 4.100493 -0.000005 0.000011 -1.167480 -10.304583 4.505095 0.640458 -0.000008 0.000003 -0.128532 71.569748 -6.968009 -1.729916 25.456856 7.355621 0.000003 
59.971104 -7.842976 92.698189 -6.931510 -0.373518 -1.680949 -0.351024 -0.151912 -0.051977 3.300619 -0.305070 -0.119941 4.945703 -0.310212 -0.116236 6.607542 12.557120 -1.283713 5.929490 -11.434327 -0.787684 -1.208431 -66.166590 -2.261771 3.146128 -107.956338 28.842355 -0.000000 -0.000000 -0.000007 2.382827 -3.699058 -1.167563 -0.000000 0.000004 -3.005362 -5.000210 -7.999600 0.000065 -7.780139 77.272403 10.430034 -74.936307 106.478100 51.585151 0.000003 -0.000000 0.000003 0.021581 2.287850 0.813233 -0.000001 0.000001 3.011707 -5.000172 7.999861 -0.000025 -6.993986 -173.593615 3.759332 -179.999991 0.000005 -1.177998 151.442151 -2.377181 -1.663232 0.000002 0.000004 0.456309 69.448523 6.925304 2.027590 29.334614 -7.138906 3.461910 1.926968 -175.914309 4.104873 -0.000005 0.000011 -1.167470 -10.312905 4.504682 0.641022 -0.000009 0.000002 -0.128532 71.570759 -6.969004 -1.728417 25.456854 7.355620 0.000002 
60.022503 -7.878446 92.696594 -6.939292 -0.375707 -1.700357 -0.350871 -0.152604 -0.051017 3.300918 -0.306613 -0.120443 4.946004 -0.312307 -0.116714 6.650317 12.548810 -1.280408 5.916514 -11.412098 -0.783450 -1.206202 -66.191910 -2.261979 2.859958 -107.905890 28.562422 -0.000000 -0.000000 -0.000006 2.361786 -3.688913 -1.168007 -0.000000 0.000004 -3.005361 -5.000210 -7.999599 0.000070 -7.794541 77.247575 10.443848 -74.837625 106.498564 51.548667 0.000002 -0.000000 0.000000 0.021763 2.332650 0.813311 0.000000 0.000001 3.011708 -5.000174 7.999860 -0.000026 -6.986176 -173.579600 3.769830 -179.999991 0.000005 -1.177997 151.449022 -2.383483 -1.664293 0.000003 0.000004 0.456330 69.450962 6.925337 2.027543 29.329464 -7.138910 3.461434 1.930007 -175.906317 4.109200 -0.000004 0.000011 -1.167450 -10.321124 4.504301 0.641574 -0.000008 0.000003 -0.128532 71.571872 -6.969965 -1.726901 25.456854 7.355621 0.000003 
60.014004 -7.867516 92.694496 -6.947022 -0.377902 -1.719866 -0.350752 -0.153303 -0.050112 3.301148 -0.308162 -0.120939 4.946245 -0.314380 -0.117185 6.693454 12.540588 -1.277047 5.903097 -11.390076 -0.779133 -1.204065 -66.217735 -2.262352 2.571614 -107.853844 28.281298 -0.000001 0.000000 -0.000007 2.340784 -3.678228 -1.168510 -0.000000 0.000004 -3.005359 -5.000209 -7.999600 0.000066 -7.809049 77.223246 10.457796 -74.739973 106.518801 51.513451 0.000003 0.000001 0.000002 0.021955 2.377680 0.813344 -0.000000 0.000000 3.011706 -5.000174 7.999860 -0.000027 -6.978521 -173.564614 3.780145 -179.999991 0.000005 -1.177998 151.455975 -2.390677 -1.665819 0.000003 0.000004 0.456346 69.453380 6.925301 2.027585 29.324509 -7.138905 3.460959 1.932988 -175.897343 4.113504 -0.000006 0.000011 -1.167450 -10.329348 4.503976 0.642119 -0.000008 0.000002 -0.128532 71.572965 -6.970927 -1.725392 25.456854 7.355621 0.000002 
60.028103 -7.852126 92.687202 -6.954695 -0.380110 -1.739506 -0.350679 -0.154011 -0.049285 3.301300 -0.309717 -0.121425 4.946386 -0.316422 -0.117646 6.737071 12.532540 -1.273620 5.889085 -11.368365 -0.774693 -1.202066 -66.244345 -2.262957 2.280565 -107.801210 27.998870 -0.000000 -0.000000 -0.000007 2.319852 -3.666830 -1.169064 -0.000000 0.000004 -3.005359 -5.000211 -7.999600 0.000066 -7.823686 77.199518 10.471932 -74.642527 106.538670 51.478774 0.000003 0.000001 0.000003 0.022151 2.423061 0.813326 -0.000001 0.000002 3.011713 -5.000172 7.999861 -0.000026 -6.971047 -173.550626 3.790506 -179.999991 0.000006 -1.177998 151.462833 -2.396980 -1.665880 0.000003 0.000003 0.456355 69.455511 6.925320 2.027555 29.319772 -7.138908 3.460490 1.935898 -175.888340 4.117746 -0.000005 0.000011 -1.167450 -10.337569 4.503720 0.642653 -0.000008 0.000003 -0.128531 71.574167 -6.971855 -1.723968 25.456854 7.355621 0.000002 
60.036804 -7.857404 92.685104 -6.962293 -0.382333 -1.759309 -0.350664 -0.154729 -0.048555 3.301329 -0.311281 -0.121899 4.946417 -0.318427 -0.118097 6.781312 12.524474 -1.270081 5.874309 -11.347267 -0.770073 -1.200237 -66.271959 -2.263878 1.986426 -107.747996 27.715036 -0.000001 0.000000 -0.000008 2.299007 -3.654504 -1.169683 -0.000001 0.000004 -3.005362 -5.000211 -7.999601 0.000066 -7.838435 77.176582 10.486255 -74.546112 106.558013 51.445378 0.000003 0.000001 0.000002 0.022359 2.468859 0.813234 0.000000 0.000001 3.011710 -5.000176 7.999860 -0.000024 -6.963803 -173.536638 3.800754 -179.999991 0.000006 -1.177997 151.469799 -2.403285 -1.666917 0.000003 0.000003 0.456357 69.457307 6.925323 2.027545 29.315216 -7.138906 3.460008 1.938704 -175.879366 4.121912 -0.000005 0.000010 -1.167460 -10.345792 4.503554 0.643173 -0.000007 0.000003 -0.128532 71.575649 -6.972679 -1.722609 25.456863 7.355622 0.000002 
60.048702 -7.870514 92.687294 -6.969801 -0.384576 -1.779314 -0.350719 -0.155461 -0.047943 3.301220 -0.312854 -0.122357 4.946307 -0.320384 -0.118532 6.826299 12.516482 -1.266422 5.858587 -11.326575 -0.765289 -1.198625 -66.300783 -2.265174 1.689103 -107.691210 27.430048 -0.000000 -0.000001 -0.000008 2.278261 -3.641068 -1.170399 -0.000000 0.000004 -3.005360 -5.000211 -7.999600 0.000067 -7.853532 77.154759 10.501001 -74.450749 106.576810 51.413423 0.000004 0.000000 0.000005 0.022578 2.515181 0.813056 -0.000001 0.000002 3.011710 -5.000173 7.999860 -0.000027 -6.956858 -173.522622 3.810869 -179.999991 0.000005 -1.177998 151.476657 -2.409602 -1.667979 0.000002 0.000004 0.456349 69.458885 6.925287 2.027639 29.310975 -7.138901 3.459520 1.941392 -175.871361 4.125934 -0.000005 0.000011 -1.167480 -10.353919 4.503507 0.643671 -0.000008 0.000003 -0.128532 71.577118 -6.973473 -1.721446 25.456854 7.355619 0.000002 
60.055504 -7.867283 92.680397 -6.977191 -0.386844 -1.799562 -0.350857 -0.156209 -0.047472 3.300952 -0.314440 -0.122798 4.946029 -0.322286 -0.118950 6.872179 12.508562 -1.262623 5.841764 -11.306606 -0.760278 -1.197265 -66.331198 -2.266915 1.387856 -107.633857 27.143646 -0.000000 0.000000 -0.000007 2.257633 -3.626321 -1.171224 -0.000000 0.000004 -3.005359 -5.000210 -7.999600 0.000065 -7.868886 77.134037 10.516103 -74.356656 106.594944 51.383223 0.000004 0.000001 0.000003 0.022812 2.562112 0.812780 -0.000000 0.000002 3.011707 -5.000175 7.999859 -0.000025 -6.950286 -173.507651 3.820708 -179.999991 0.000006 -1.177998 151.483624 -2.415910 -1.668015 0.000003 0.000004 0.456327 69.459943 6.925297 2.027675 29.307030 -7.138903 3.459023 1.943937 -175.862372 4.129882 -0.000005 0.000011 -1.167509 -10.362045 4.503597 0.644153 -0.000008 0.000002 -0.128532 71.578880 -6.974193 -1.720255 25.456860 7.355622 0.000003 
